<?xml version="1.0" encoding="utf-8"?>
<!-- Generator: Adobe Illustrator 16.0.0, SVG Export Plug-In . SVG Version: 6.00 Build 0)  -->
<!DOCTYPE svg PUBLIC "-//W3C//DTD SVG 1.1//EN" "http://www.w3.org/Graphics/SVG/1.1/DTD/svg11.dtd">
<svg version="1.1" xmlns="http://www.w3.org/2000/svg" xmlns:xlink="http://www.w3.org/1999/xlink" x="0px" y="0px" width="1400px"
	 height="980px" viewBox="0 0 1400 980" enable-background="new 0 0 1400 980" xml:space="preserve">
<g id="BACKGROUND">
	<rect fill="#FAFBFC" width="1400" height="980"/>
</g>
<g id="OBJECT">
	<g>
		<g>
			<polygon fill="#789FB0" points="1216.562,791.727 199.757,791.727 221.904,230.962 1216.562,187.133 			"/>
			<g>
				<rect x="609.808" y="193.831" fill="none" stroke="#FDFDFF" stroke-miterlimit="10" width="77.627" height="547.431"/>
				<rect x="630.041" y="193.831" fill="none" stroke="#FDFDFF" stroke-miterlimit="10" width="38.165" height="547.431"/>
				<g>
					<path fill="none" stroke="#FDFDFF" stroke-miterlimit="10" d="M630.078,255.949h-44.169c0,0-16.569,3.307-15.764,22.798
						c0.808,19.491,33.052,25.848,38.856,6.515c0,0,4.833-17.723-13.311-17.723c-8.171,0-10.938,11.742-6.964,15.985"/>
					<polyline fill="none" stroke="#FDFDFF" stroke-miterlimit="10" points="586.715,255.949 575.812,243.373 609.808,243.373 					
						"/>
				</g>
				<g>
					<path fill="none" stroke="#FDFDFF" stroke-miterlimit="10" d="M667.392,255.949h44.169c0,0,16.569,3.307,15.763,22.798
						s-33.051,25.848-38.855,6.515c0,0-4.833-17.723,13.311-17.723c8.171,0,10.938,11.742,6.964,15.985"/>
					<polyline fill="none" stroke="#FDFDFF" stroke-miterlimit="10" points="710.755,255.949 721.658,243.373 687.663,243.373 					
						"/>
				</g>
			</g>
			<polygon fill="#96BBCD" points="616.371,791.727 185.006,791.727 209.936,187.133 616.371,167.408 			"/>
			<rect x="263.99" y="239.962" fill="#789FB0" width="255.473" height="447.276"/>
			<polygon fill="#CBE6ED" points="1216.562,791.727 181.281,791.727 181.281,693.597 1216.562,686.67 			"/>
			<polygon fill="#E5CEBC" points="1235.518,515.604 1006.957,515.604 1014.035,571.465 996.844,756.734 1248.664,761.662 			"/>
			<polygon fill="#F65448" points="1191.514,469.054 1216.562,515.604 1179.324,515.225 			"/>
			<polygon fill="#212639" points="1131.84,434.737 1112.753,515.604 1191.514,515.154 1210.599,434.737 			"/>
			
				<rect x="253.859" y="301.138" fill="none" stroke="#212639" stroke-linecap="round" stroke-linejoin="round" stroke-miterlimit="10" width="15.42" height="37.977"/>
			
				<rect x="253.859" y="560.146" fill="none" stroke="#212639" stroke-linecap="round" stroke-linejoin="round" stroke-miterlimit="10" width="15.42" height="37.977"/>
			<g>
				<polygon fill="none" stroke="#FDFDFF" stroke-miterlimit="10" points="296.859,271.138 296.859,364.235 374.473,364.235 
					374.473,267.138 				"/>
				<polygon fill="none" stroke="#FDFDFF" stroke-miterlimit="10" points="308.879,284.931 308.879,349.195 362.453,349.195 
					362.453,282.17 				"/>
				<line fill="none" stroke="#FDFDFF" stroke-miterlimit="10" x1="296.859" y1="271.138" x2="308.879" y2="284.931"/>
				<line fill="none" stroke="#FDFDFF" stroke-miterlimit="10" x1="362.453" y1="349.195" x2="374.473" y2="364.235"/>
				<line fill="none" stroke="#FDFDFF" stroke-miterlimit="10" x1="308.879" y1="349.195" x2="296.859" y2="364.235"/>
				<line fill="none" stroke="#FDFDFF" stroke-miterlimit="10" x1="362.453" y1="282.17" x2="374.473" y2="267.138"/>
			</g>
			<g>
				<polygon fill="none" stroke="#FDFDFF" stroke-miterlimit="10" points="489.624,271.138 489.624,364.235 412.011,364.235 
					412.011,267.138 				"/>
				<polygon fill="none" stroke="#FDFDFF" stroke-miterlimit="10" points="477.604,284.931 477.604,349.195 424.03,349.195 
					424.03,282.17 				"/>
				<line fill="none" stroke="#FDFDFF" stroke-miterlimit="10" x1="489.624" y1="271.138" x2="477.604" y2="284.931"/>
				<line fill="none" stroke="#FDFDFF" stroke-miterlimit="10" x1="424.03" y1="349.195" x2="412.011" y2="364.235"/>
				<line fill="none" stroke="#FDFDFF" stroke-miterlimit="10" x1="477.604" y1="349.195" x2="489.624" y2="364.235"/>
				<line fill="none" stroke="#FDFDFF" stroke-miterlimit="10" x1="424.03" y1="282.17" x2="412.011" y2="267.138"/>
			</g>
			<g>
				<polygon fill="none" stroke="#FDFDFF" stroke-miterlimit="10" points="296.859,404.715 296.859,497.812 374.473,497.812 
					374.473,400.715 				"/>
				<polygon fill="none" stroke="#FDFDFF" stroke-miterlimit="10" points="308.879,418.509 308.879,482.772 362.453,482.772 
					362.453,415.748 				"/>
				<line fill="none" stroke="#FDFDFF" stroke-miterlimit="10" x1="296.859" y1="404.715" x2="308.879" y2="418.509"/>
				<line fill="none" stroke="#FDFDFF" stroke-miterlimit="10" x1="362.453" y1="482.772" x2="374.473" y2="497.812"/>
				<line fill="none" stroke="#FDFDFF" stroke-miterlimit="10" x1="308.879" y1="482.772" x2="296.859" y2="497.812"/>
				<line fill="none" stroke="#FDFDFF" stroke-miterlimit="10" x1="362.453" y1="415.748" x2="374.473" y2="400.715"/>
			</g>
			<g>
				<polygon fill="none" stroke="#FDFDFF" stroke-miterlimit="10" points="489.624,404.715 489.624,497.812 412.011,497.812 
					412.011,400.715 				"/>
				<polygon fill="none" stroke="#FDFDFF" stroke-miterlimit="10" points="477.604,418.509 477.604,482.772 424.03,482.772 
					424.03,415.748 				"/>
				<line fill="none" stroke="#FDFDFF" stroke-miterlimit="10" x1="489.624" y1="404.715" x2="477.604" y2="418.509"/>
				<line fill="none" stroke="#FDFDFF" stroke-miterlimit="10" x1="424.03" y1="482.772" x2="412.011" y2="497.812"/>
				<line fill="none" stroke="#FDFDFF" stroke-miterlimit="10" x1="477.604" y1="482.772" x2="489.624" y2="497.812"/>
				<line fill="none" stroke="#FDFDFF" stroke-miterlimit="10" x1="424.03" y1="415.748" x2="412.011" y2="400.715"/>
			</g>
			<g>
				<polygon fill="none" stroke="#FDFDFF" stroke-miterlimit="10" points="296.859,550.772 296.859,643.87 374.473,643.87 
					374.473,546.772 				"/>
				<polygon fill="none" stroke="#FDFDFF" stroke-miterlimit="10" points="308.879,564.566 308.879,628.83 362.453,628.83 
					362.453,561.806 				"/>
				<line fill="none" stroke="#FDFDFF" stroke-miterlimit="10" x1="296.859" y1="550.772" x2="308.879" y2="564.566"/>
				<line fill="none" stroke="#FDFDFF" stroke-miterlimit="10" x1="362.453" y1="628.83" x2="374.473" y2="643.87"/>
				<line fill="none" stroke="#FDFDFF" stroke-miterlimit="10" x1="308.879" y1="628.83" x2="296.859" y2="643.87"/>
				<line fill="none" stroke="#FDFDFF" stroke-miterlimit="10" x1="362.453" y1="561.806" x2="374.473" y2="546.772"/>
			</g>
			<g>
				<polygon fill="none" stroke="#FDFDFF" stroke-miterlimit="10" points="489.624,550.772 489.624,643.87 412.011,643.87 
					412.011,546.772 				"/>
				<polygon fill="none" stroke="#FDFDFF" stroke-miterlimit="10" points="477.604,564.566 477.604,628.83 424.03,628.83 
					424.03,561.806 				"/>
				<line fill="none" stroke="#FDFDFF" stroke-miterlimit="10" x1="489.624" y1="550.772" x2="477.604" y2="564.566"/>
				<line fill="none" stroke="#FDFDFF" stroke-miterlimit="10" x1="424.03" y1="628.83" x2="412.011" y2="643.87"/>
				<line fill="none" stroke="#FDFDFF" stroke-miterlimit="10" x1="477.604" y1="628.83" x2="489.624" y2="643.87"/>
				<line fill="none" stroke="#FDFDFF" stroke-miterlimit="10" x1="424.03" y1="561.806" x2="412.011" y2="546.772"/>
			</g>
			<g>
				<circle fill="#FDE1DD" cx="400.688" cy="174.396" r="47.479"/>
				<polyline fill="none" stroke="#212639" stroke-linecap="round" stroke-linejoin="round" stroke-miterlimit="10" points="
					400.688,159.858 400.688,178.396 421.399,153.858 				"/>
			</g>
			<g>
				<path fill="none" stroke="#212639" stroke-linecap="round" stroke-linejoin="round" stroke-miterlimit="10" d="M901.525,343.388
					v12.75c0,0,17.333,3.938,20,18.969v16.614l7.333-2.916v-48L901.525,343.388z"/>
				<path fill="none" stroke="#212639" stroke-linecap="round" stroke-linejoin="round" stroke-miterlimit="10" d="
					M1056.881,343.388v12.75c0,0,17.333,3.938,20,18.969v16.614l7.333-2.916v-48L1056.881,343.388z"/>
				<polygon fill="#CBE6ED" points="1130.444,346.594 863.243,346.594 858.243,327.05 1130.444,323.05 				"/>
				<path fill="#FFFFFF" d="M1070.547,278.138h53.289c0,0,4.357,44.912-26.645,44.912S1070.547,278.138,1070.547,278.138z"/>
				<polygon fill="#3B61B2" points="1021.523,323.05 1026.856,234.804 1043.523,234.804 1043.523,323.05 				"/>
				<polygon fill="none" stroke="#FDFDFF" stroke-miterlimit="10" points="982.189,323.05 1001.842,273.455 992.016,266.804 
					966.189,323.05 				"/>
				<polygon fill="none" stroke="#212639" stroke-linecap="round" stroke-linejoin="round" stroke-miterlimit="10" points="
					999.523,323.05 1002.856,251.765 1025.831,251.765 1025.831,323.05 				"/>
				
					<line fill="none" stroke="#212639" stroke-linecap="round" stroke-linejoin="round" stroke-miterlimit="10" x1="1008.189" y1="251.765" x2="1008.189" y2="323.05"/>
				
					<line fill="none" stroke="#212639" stroke-linecap="round" stroke-linejoin="round" stroke-miterlimit="10" x1="1012.678" y1="251.765" x2="1012.678" y2="323.05"/>
				
					<line fill="none" stroke="#212639" stroke-linecap="round" stroke-linejoin="round" stroke-miterlimit="10" x1="1018.189" y1="251.765" x2="1018.189" y2="323.05"/>
				<path fill="#F65448" d="M1105.833,278.138c0,0,1.69-52,35.023-67.333C1140.856,210.804,1132.81,260.138,1105.833,278.138z"/>
				<path fill="#F65448" d="M1087.151,278.927c0,0,3.705-26.123-20.295-44.123C1066.856,234.804,1061.446,265.049,1087.151,278.927z
					"/>
				<path fill="#F65448" d="M1102.189,278.138c0,0,23.337-80.793-4.998-110.73C1097.191,167.408,1073.935,226.804,1102.189,278.138z
					"/>
				
					<line fill="none" stroke="#212639" stroke-linecap="round" stroke-linejoin="round" stroke-miterlimit="10" x1="1070.337" y1="283.645" x2="1124.046" y2="287.407"/>
				
					<line fill="none" stroke="#212639" stroke-linecap="round" stroke-linejoin="round" stroke-miterlimit="10" x1="1097.191" y1="167.408" x2="1102.189" y2="278.138"/>
				
					<line fill="none" stroke="#212639" stroke-linecap="round" stroke-linejoin="round" stroke-miterlimit="10" x1="1066.856" y1="234.804" x2="1087.151" y2="278.927"/>
				
					<line fill="none" stroke="#212639" stroke-linecap="round" stroke-linejoin="round" stroke-miterlimit="10" x1="1140.856" y1="210.804" x2="1105.833" y2="278.138"/>
			</g>
			<g>
				<polygon fill="none" stroke="#212639" stroke-linecap="round" stroke-linejoin="round" stroke-miterlimit="10" points="
					1043.523,539.138 1043.523,595.321 1248.664,599.138 1248.664,537.138 				"/>
				<polygon fill="none" stroke="#212639" stroke-linecap="round" stroke-linejoin="round" stroke-miterlimit="10" points="
					1122.754,559.138 1122.754,568.138 1163.459,572.138 1163.459,559.138 				"/>
			</g>
			<g>
				<polygon fill="none" stroke="#212639" stroke-linecap="round" stroke-linejoin="round" stroke-miterlimit="10" points="
					1033.152,617.68 1033.152,673.863 1254.859,670.899 1254.859,615.68 				"/>
				<polygon fill="none" stroke="#212639" stroke-linecap="round" stroke-linejoin="round" stroke-miterlimit="10" points="
					1112.383,637.68 1112.383,646.68 1153.088,650.68 1153.088,637.68 				"/>
			</g>
			<polyline fill="none" stroke="#212639" stroke-linecap="round" stroke-linejoin="round" stroke-miterlimit="10" points="
				1039.67,757.572 1039.67,692.105 1223.859,692.105 1227.859,762.03 			"/>
			<polygon fill="#212639" points="1033.152,673.863 1049.911,673.621 1033.152,617.68 			"/>
			<polygon fill="#3B61B2" points="1143.959,449.264 1132.735,502.138 1174.859,502.138 1189.859,449.264 			"/>
			<circle fill="#FFFFFF" cx="1156.359" cy="463.305" r="8.167"/>
			<polygon fill="none" stroke="#212639" stroke-linecap="round" stroke-linejoin="round" stroke-miterlimit="10" points="
				1156.359,465.471 1150.192,492.329 1170.526,492.329 			"/>
			<g>
				<circle fill="#FFFFFF" cx="844.432" cy="261.704" r="20.573"/>
				<path fill="#C9A0BE" d="M780.11,262.753H911.52c0,0-17.129-39.009-60.895-43.004S780.11,262.753,780.11,262.753z"/>
				<line fill="none" stroke="#FDFDFF" stroke-miterlimit="10" x1="785.035" y1="255.388" x2="907.399" y2="255.388"/>
				
					<line fill="none" stroke="#212639" stroke-linecap="round" stroke-linejoin="round" stroke-miterlimit="10" x1="844.41" y1="143.462" x2="840.003" y2="219.749"/>
				
					<line fill="none" stroke="#212639" stroke-linecap="round" stroke-linejoin="round" stroke-miterlimit="10" x1="856.839" y1="143.462" x2="852.432" y2="219.749"/>
			</g>
		</g>
		<g>
			<path fill="#2E5599" d="M1085.949,415.478v58.67c0,0-69.8,22.38-121.79,38.521c-24.689,7.68-45.359,13.949-52.64,15.75
				c-22.59,5.609-157.86,184.34-157.86,184.34l-16.569-24.98l26.489-88.029l31.351-104.16c0,0,5.43-34.77,29.83-41.1
				C849.159,448.167,1085.949,415.478,1085.949,415.478z"/>
			<path fill="#212639" d="M964.159,512.668c-24.689,7.68-45.359,13.949-52.64,15.75c-22.59,5.609-157.86,184.34-157.86,184.34
				l-16.569-24.98l26.489-88.029l111.95-62.61l14.75-47.53L964.159,512.668z"/>
			<path fill="#E79C89" d="M1143.939,784.668c-0.93,7.45-42.82,4.649-52.13,5.58c-9.311,0.93-28.86,2.8-32.59,0
				c-1.87-1.4-6.801-9.15-11.24-16.521c-4.39-7.29-8.311-14.2-8.311-14.2l22.28-21.56l6.58-6.37c0,0,3.35,5.38,8.65,12.53
				c1.21,1.63,2.52,3.35,3.92,5.13c3.189,4.05,6.83,8.36,10.72,12.399C1104.85,775.228,1144.869,777.218,1143.939,784.668z"/>
			<path fill="#212639" d="M1084.209,746.968l-3.109,2.29l-33.12,24.47c-4.39-7.29-8.311-14.2-8.311-14.2l22.28-21.56l15.23,6.16
				L1084.209,746.968z"/>
			<path fill="#E79C89" d="M1145.329,427.417c-3.09,8.54-9.66,26.44-13.67,28.53c-1.66,0.87-8.01,1.75-14.85,2.48
				c-9.62,1.02-20.24,1.75-20.24,1.75l-12.36-36.98c0,0,10.23-1.12,22.57-4.02c4.36-1.02,8.99-2.27,13.521-3.76
				c17.35-5.72,35.869-39.93,42-35.99C1168.43,383.368,1148.409,418.878,1145.329,427.417z"/>
			<path fill="#212639" d="M1116.81,458.428c-9.62,1.02-20.24,1.75-20.24,1.75l-12.36-36.98c0,0,10.23-1.12,22.57-4.02
				L1116.81,458.428z"/>
			<path fill="#3B61B2" d="M770.298,807.273c0,0,89.688,1.947,101.79-45.243c12.104-47.19,27.996-146.215,27.996-146.215
				l125.62,136.265l61.447-27.837c0,0-143.376-219.812-184.34-231.914c-40.964-12.103-57.723,11.733-67.964,30.538
				c-10.24,18.806-90.618,163.803-90.618,163.803L770.298,807.273z"/>
			<g>
				<path fill="#CBE6ED" d="M625.949,417.558c0,0-9.03,58.79-11.7,70.35c-2.659,11.549-11.319,43.34-37.92,39.1
					c-14.899-2.37-57.45-2.74-97.58-13.62c-24.63-6.67-48.35-17.3-64.189-34.78c-4.46-4.91-8.29-10.36-11.34-16.41
					c-4.45-8.81-0.78-21.91,8.93-28.44c5.62-3.77,13.27-5.35,22.54-2.61c3.28,0.97,7.21,2.3,11.61,3.86
					c29.46,10.47,79.949,31.37,97.909,23.83c20.641-8.67,30.631-43.69,48.32-52.32L625.949,417.558z"/>
				<path fill="#212639" d="M412.149,433.758l2.41,44.85c19.032,27.804,64.189,34.78,64.189,34.78l-32.449-78.38
					C415.738,419.878,412.149,433.758,412.149,433.758z"/>
				<path fill="#FDE1DD" d="M618.258,429.448l7.512-28.168c0,0,7.441-7.658,8.668-14.818c1.226-7.16-3.87-28.314-3.87-28.314
					s-6.634-3.529-8.632-4.113c-1.997-0.584-5.389,5.076-7.002,13.57c-1.613,8.492-1.613,8.492-1.613,8.492
					s-1.469-6.356-1.576-10.437c0,0-3.085,5.605-3.337,9.435c-0.253,3.83,2.378,16.6,2.378,16.6l-16.727,29.524L618.258,429.448z"/>
				<path fill="#F65448" d="M221.903,720.558c0,0-9.112-9.488-22.146-0.18c-13.033,9.311-37.717,34.806-37.717,37.909
					c0,3.103,8.068,4.345,19.241,0c11.172-4.345,27.104-16.197,44.067-13.335c16.962,2.863,11.172-24.395,11.172-24.395H221.903z"/>
				<polygon fill="#212639" points="228.452,727.873 217.28,758.236 283.07,762.03 				"/>
				<path fill="#2E5599" d="M267.242,622.18c0,0-21.967,51.57,14.912,93.784c36.877,42.214,187.176,45.655,187.176,45.655
					s78.601,7.299,71.146-39.594c-7.456-46.892-171.675-97.12-171.675-97.12L267.242,622.18z"/>
				<path fill="#F65448" d="M431.3,408.928c-29.21,18.09-58,59.01-68.91,84.74c-7.07,16.689-34.641,58.54-77.04,65.489
					c-16.57,2.721-35.391,0.11-56.15-11.43c-7.51-4.16-15.28-9.5-23.28-16.18c-0.579-0.48-1.17-0.97-1.76-1.479
					c-2.71-2.311-5.229-4.631-7.58-6.94c-73.739-72.44,24.851-140.86,78.431-144.42c55.29-3.67,78.56-40.02,89.01-50.63
					c10.45-10.6,61.07-41.67,87.34-1.73c0,0,15.09,4.48,15.47,20.3C467.199,362.468,460.52,390.848,431.3,408.928z"/>
				<path fill="#212639" d="M238.189,537.468l-8.99,10.26c-7.51-4.16-15.28-9.5-23.28-16.18c-0.579-0.48-1.17-0.97-1.76-1.479
					c-2.71-2.311-5.229-4.631-7.58-6.94c17.53-16.99,82.45-79.14,100.28-85.56C317.529,430.138,238.189,537.468,238.189,537.468z"/>
				<path fill="#FDE1DD" d="M443.459,356.57c0,0-5.96,39.222-9.885,43.462c-3.924,4.24-17.078,2.935-19.16,14.563l-2.582,13.163
					l-26.097-8.483l7.39-35.786c0,0-7.04-3.139-0.459-10.334c0,0,4.718-44.379,33.025-37.637
					C450.108,341.335,443.459,356.57,443.459,356.57z"/>
				<path fill="#F65448" d="M445.365,336.398c0,0,6.556,25.468-14.717,29.586c-21.274,4.117-27.36,0.017-30.147,7.172l-8.662-0.27
					c0,0-2.697-27.543,18.414-42.566C431.362,315.298,445.365,336.398,445.365,336.398z"/>
				<path fill="none" stroke="#FDFDFF" stroke-miterlimit="10" d="M450.359,328.982c0,0,3.148,8.881-7.064,20.264"/>
				<polyline fill="none" stroke="#212639" stroke-miterlimit="10" points="431.156,379.029 432.013,385.946 429.205,385.034 				
					"/>
				<path fill="#C9A0BE" d="M453.6,497.447c-5.12,16.76-31.19,48.41-42.36,67.971c-11.17,19.55-55.86,92.17-55.86,92.17
					s-16.67-2.561-38.229-6.05c-35.86-5.811-85.25-14.21-93.97-17.7c-4.44-1.771,3.199-23.97,15.699-53.42
					c26.79-63.19,75.91-159.78,75.91-159.78s24.49-24.2,70.95-7.91c46.45,16.29,52.03,23.74,52.03,23.74
					S458.72,480.688,453.6,497.447z"/>
				<path fill="none" stroke="#212639" stroke-miterlimit="10" d="M427.909,393.795c0,0-5.972,1.312-6.813-4.285"/>
				<path fill="#FDE1DD" d="M373.534,409.225c0,0,52.424,14.892,54.375,20.809s-6.813,36.222-8.887,38.399
					C408.821,479.148,373.534,409.225,373.534,409.225z"/>
				<path fill="#CBE6ED" d="M387.164,412.354c0,0,30.641,40.252,31.858,59.493c0,0-25.161-4.034-29.506-12.414
					c-4.344-8.379-3.781-14.275-3.781-14.275s-23.218-3.414-23.528-18.931c-0.31-15.517,0-19.136,0-19.136
					S378.296,402.514,387.164,412.354z"/>
				<path fill="#CBE6ED" d="M417.256,423.723c0,0-2.243,34.159,1.767,48.124c0,0,12.66-12.723,12.99-18.62
					c0.331-5.897-2.131-8.689-2.131-8.689s6.048-7.186,4.807-13.392C433.445,424.938,423.891,421.219,417.256,423.723z"/>
				<path fill="#212639" d="M335.666,654.503c-35.86-5.811-103.767-17.175-112.486-20.665c-4.44-1.771,3.199-23.97,15.699-53.42
					L335.666,654.503z"/>
				<polyline fill="none" stroke="#212639" stroke-miterlimit="10" points="419.022,471.847 429.205,494.269 421.402,497.812 
					413.674,471.847 				"/>
				<path fill="none" stroke="#212639" stroke-miterlimit="10" d="M387.164,412.354c0,0,24.241,34.954,30.539,52.705"/>
			</g>
			<g>
				<path fill="#212639" d="M513.377,411.344c0,0,10.954,10.65,16.395,10.844c5.438,0.193,10.096,7.101,10.096,7.101
					s19.895,82.665,19.442,92.565c-0.45,9.897-25.275,84.075-32.728,102.493c-7.451,18.418,66.959,29.425,66.959,29.425
					s29.323-70.034,30.547-96.269c1.223-26.233-51.868-136.72-55.838-147.772c-3.97-11.051-7.609-24.174-11.171-29.125
					c-3.561-4.949-11.863-9.015-11.863-9.015l-5.359,0.555l-6.824,0.708c0,0-8.333-9.116-12.713-8.598
					c-4.38,0.517-4.38,0.517-4.38,0.517s10.949,10.58,13.357,14.817c2.409,4.238,6.253,17.552,3.888,23.256
					c-2.363,5.703-5.521,8.493-8.498,8.31C521.712,410.973,513.377,411.344,513.377,411.344z"/>
				<path fill="#212639" d="M464.401,724.706c1.702,33.554,68.476,34.542,95.783,3.008c27.308-31.533,28.767-50.588,33.485-65.253
					c4.722-14.664,5.64-26.87,5.64-26.87l-70.2-30.249C529.109,605.342,462.608,689.325,464.401,724.706z"/>
				<polygon fill="#212639" points="532.738,595.321 607.076,626.249 599.769,640.012 529.109,605.342 				"/>
			</g>
			<g>
				<path fill="#E79C89" d="M404.898,692.162c0,0,0.424-3.29,12.259,2.729c11.848,6.018,16.051,19.425,16.051,19.425
					s39.667,11.889,52.28-6.85c3.797-5.634,3.307-10.021,0.765-13.398l-0.005-0.007c-5.914-7.848-22.887-10.253-22.887-10.253
					s-18.006-10.152-23.656-16.282c-0.885-0.959-1.584-2.072-2.169-3.294c-3.168-6.554-2.928-16.086-9.267-20.043
					c-7.506-4.688-35.289-23.942-35.289-23.942s-8.334-16.38-29.691,13.837c-21.145,29.9,23.59,49.553,24.526,49.961
					L404.898,692.162"/>
				<path fill="#D68778" d="M486.248,694.062c-29.938,2.654-73.225-14.574-59.688-18.771c6.558-2.029,9.66-6.394,10.977-11.059
					c0.585,1.222,1.284,2.335,2.169,3.294c5.65,6.13,23.656,16.282,23.656,16.282S480.334,686.214,486.248,694.062z"/>
				<path fill="#212639" d="M390.961,690.728c0,0-26.24-2.409-38.932-20.42c-15.77-22.381-5.072-32.863,5.489-45.027
					c10.564-12.162,24.446-28.148,24.446-28.148c12.218,2.076,18.327,19.61-0.617,40.021c0,0,9.313,4.718,5.181,10.881
					c-4.134,6.165-1.034,13.125,1.399,15.237s11.815,10.259,11.815,10.259l-5.762,1.022c0,0-6.827-1.358-7.306,2.796
					c-0.479,4.157,11.543,9.114,16.466,3.785l1.757,11.028L390.961,690.728z"/>
				<path fill="none" stroke="#212639" stroke-miterlimit="10" d="M417.847,658.824c0,0,14.03-1.994,6.85-11.371"/>
				<polyline fill="none" stroke="#212639" stroke-miterlimit="10" points="418.066,641.201 421.402,637.359 413.674,635.03 				"/>
			</g>
			<path fill="#212639" d="M426.741,720.558c0,0,26.362-26.815,36.62-36.749c0,0,10.877-25.562,44.393-39.161
				c33.517-13.6,107.997,16.814,135.928,27.986c27.93,11.172,75.722,13.656,82.549,14.276c6.828,0.619,6.828,0.619,6.828,0.619
				l21.102,119.744H440.125C440.125,807.273,385.027,765.948,426.741,720.558z"/>
			<g>
				<path fill="#3B61B2" d="M223.177,633.842c0,0-29.792,47.481,0,94.963s177.686,74.48,177.686,74.48s76.479,19.552,76.479-27.931
					c0-47.481-154.295-122.872-154.295-122.872L223.177,633.842z"/>
				<path fill="#FDE1DD" d="M292.692,635.394l26.378,12.414c0,0,6.207,8.688,13.033,11.172c6.827,2.483,28.553,1.241,28.553,1.241
					s4.654-5.896,5.585-7.759c0.932-1.861-4.034-6.206-12.103-9.31c-8.069-3.104-8.069-3.104-8.069-3.104s6.516-0.311,10.551,0.311
					c0,0-4.964-4.034-8.688-4.966c-3.725-0.931-16.758-0.62-16.758-0.62l-26.069-21.724L292.692,635.394z"/>
				<path fill="#CBE6ED" d="M322.221,415.332c13.91-7.036,22.918,29.05,7.556,50.463c-15.361,21.413-52.136,61.447-50.739,83.792
					c1.396,22.344,31.188,43.291,33.516,62.843l-21.412,27.93c0,0-52.556-27.865-62.588-34.182
					c-10.031-6.317-37.212-24.948-24.462-48.679C216.841,533.77,283.94,434.695,322.221,415.332z"/>
			</g>
			<path fill="#C9A0BE" d="M455.758,679.285l30.49-6.807c0,0-28.467,45.651-46.617,51.765l-9.335-7.295L455.758,679.285z"/>
			<polygon fill="#C9A0BE" points="723.145,686.67 741.747,807.273 770.298,807.273 744.229,686.67 			"/>
			<polygon fill="#6286C4" points="1017.326,751.149 1026.636,769.77 1101.115,740.908 1079.569,712.754 			"/>
			<polygon fill="#6286C4" points="1076.912,408.398 1076.912,477.04 1105.833,477.04 1103.122,403.88 			"/>
			<g>
				<path fill="#212639" d="M637.475,443.606c0,0,6.713,10.647,0,25.944c-2.805,6.391-0.229,23.342,6.713,19.491
					c6.942-3.85,6.339-18.125,10.365-27.436c4.025-9.31-13.914-24.034-13.914-24.034L637.475,443.606z"/>
				<path fill="#212639" d="M664.737,375.106c0,0,25.494,7.123,40.392,19.501c14.896,12.379,55.239,18.127,68.894,8.425
					s5.586,45.791-36.931,36.354c-42.516-9.437-49.437-50.275-72.354-53.441C641.82,382.78,664.737,375.106,664.737,375.106z"/>
				<g>
					<path fill="#FFFFFF" d="M498.156,369.492l13.307-2.453c0.976-6.369,6.297-12.563,21.523-45.056
						c15.226-32.492-17.039-31.365-17.039-31.365c-1.978,1.26-3.773,2.67-5.407,4.212c-17.442,16.457-16.226,47.746-14.15,64.105
						C497.205,365.37,498.156,369.492,498.156,369.492z"/>
					<path fill="#FFFFFF" d="M529.848,412.515c0,0-17.884,10.5-21.28,16.944c-3.397,6.445-4.677,7.947-1.321,12.044
						c3.354,4.097,8.424,8.616,11.031,7.621c2.607-0.996,3.643-3.657,0.315-9.378c0,0,2.469,1.465,1.906-1.646
						c-0.563-3.11-0.563-3.11-0.563-3.11s24.604-12.872,35.596-16.159C566.525,415.546,529.848,412.515,529.848,412.515z"/>
					<path fill="#FFFFFF" d="M612.971,445.006c-8.984-1.62-44.065-15.25-65.45-23.191c-1.08-0.41-2.123-0.791-3.128-1.164
						c-2.523-0.922-4.785-1.75-6.722-2.43c-1.312-0.465-2.477-0.856-3.454-1.182c-1.174-0.382-2.086-0.652-2.71-0.8
						c-0.567-0.14-1.145-0.187-1.74-0.159c-5.884,0.27-12.886,8.109-21.553,14.04c-3.287,2.253-6.815,4.217-10.614,5.4
						c-9.459,2.933-20.342-0.978-27.594-6.536c0,0-0.01,0-0.029-0.009c-4.095-3.147-7.019-6.806-7.875-10.045
						c-0.057-0.214-0.085-0.438-0.094-0.68c-0.232-4.739,7.569-16.06,16.023-26.851c8.229-10.511,17.083-20.519,19.783-23.545
						c0.529-0.595,0.828-0.921,0.828-0.921s2.477,0.615,5.875,1.387c4.767,1.09,11.34,2.495,15.51,2.998
						c1.993,0.242,9.786,0.009,20.027-0.456c3.509-0.158,7.308-0.344,11.246-0.54c0.064-0.01,0.131-0.01,0.186-0.01
						c16.582-0.856,35.751-2.001,47.37-2.718c5.065-0.307,8.695-0.54,10.046-0.624c0.381-0.028,0.586-0.038,0.586-0.038
						l1.378,30.807L612.971,445.006z"/>
					<path fill="#F65448" d="M542.458,373.311c0,0-3.721,28.408-12.692,42.773l0.086,1.907l7.341,0.973
						c0,0,15.714-23.548,14.298-48.713L542.458,373.311z"/>
					<path fill="#212639" d="M518.513,399.431c13.005-7.886,15.727-19.327,21.539-28.569c-10.234,0.461-18.032,0.695-20.024,0.452
						c-7.149-0.867-21.387-4.381-21.387-4.381s-10.749,11.88-20.607,24.462C485.325,397.305,502.85,408.929,518.513,399.431z"/>
					<path fill="#212639" d="M461.999,418.255c0,0,5.958-7.433,8.677,0.372c2.718,7.803-0.671,10.358-0.671,10.358
						S457.472,424.59,461.999,418.255z"/>
					<circle fill="#3B61B2" cx="538.312" cy="421.636" r="6.16"/>
					<path fill="none" stroke="#212639" stroke-linecap="round" stroke-linejoin="round" stroke-miterlimit="10" d="
						M539.178,419.848l-2.006,4.83c0,0,0.654-4.178,6.653-0.295"/>
				</g>
				<g>
					<path fill="#212639" d="M576.27,317.815c7.515,10.954-7.296,32.03-26.454,43.397c-19.155,11.368-46.511,22.004-53.08,15.182
						c0,0,3.986-39.845,53.226-65.192C549.961,311.202,564.9,301.243,576.27,317.815z"/>
					<path fill="none" stroke="#FDFDFF" stroke-miterlimit="10" d="M515.873,374.229c0,0,14.169-2.652,20.396-5.787"/>
				</g>
				<g>
					<path fill="#FF6142" d="M481.626,431.359c0,0-17.173,10.724-12.616,23.834c4.557,13.109,11.222-14.614,18.815-23.342
						L481.626,431.359z"/>
					<path fill="none" stroke="#212639" stroke-linecap="round" stroke-linejoin="round" stroke-miterlimit="10" d="
						M470.936,427.758c0,0,18.814,8.324,25.8,1.689"/>
					<path fill="none" stroke="#212639" stroke-linecap="round" stroke-linejoin="round" stroke-miterlimit="10" d="M475.48,443.606
						c0,0,2.745-8.625,8.355-12.071"/>
				</g>
				<path fill="#FFFFFF" d="M671.615,489.042c-3.725-8.816-8.695-28.368-13.658-30.388c-4.962-2.011-44.986-13.648-44.986-13.648
					s-10.334-47.686-8.51-68.522c0.484-5.52,1.825-9.161,4.441-9.514c0.381-0.028,0.586-0.038,0.586-0.038
					s17.225,0.195,33.768,2.691c11.2,1.694,22.093,4.45,27.111,8.918c12.419,11.07,14.896,38.414,4.972,49.26
					c-9.935,10.837-15.52,13.025-11.796,17.205c3.725,4.189,14.896,13.648,14.896,13.648s4.348,25.547,5.587,30.388
					C685.264,493.884,675.339,497.859,671.615,489.042z"/>
				<path fill="none" stroke="#212639" stroke-linecap="round" stroke-linejoin="round" stroke-miterlimit="10" d="M637.475,403.033
					c0,0-25.566,30.785-9.99,46.231"/>
				<path fill="#212639" d="M638.09,392.711c-4.926,1.238-9.842-0.261-14.859,1.377c-4.516,1.472-8.045,5.661-12.364,3.65
					c-0.018-0.009-0.046-0.019-0.065-0.028c-5.949-2.858-5.316-11.796-5.604-16.982c-0.083-1.573-0.345-2.97-0.735-4.246
					c-1.089-3.621-3.249-6.228-5.604-8.891c5.065-0.307,8.695-0.54,10.046-0.624c0.381-0.028,0.586-0.038,0.586-0.038
					s17.225,0.195,33.768,2.691C648.376,378.29,648.936,389.975,638.09,392.711z"/>
			</g>
			<g>
				<path fill="#E79C89" d="M545.321,421.229c0,0,9.8,11.722,15.188,12.476c5.391,0.754,9.311,8.104,9.311,8.104
					s11.269,84.275,9.799,94.075s-33.808,81.024-43.118,98.574c-9.31,17.551,63.568,36.171,63.568,36.171
					s36.387-66.637,40.308-92.605c3.92-25.971-37.498-141.339-40.308-152.742c-2.812-11.402-5.078-24.829-8.109-30.12
					c-3.031-5.291-10.871-10.19-10.871-10.19H575.7h-6.861c0,0-7.349-9.926-11.759-9.863c-4.41,0.063-4.41,0.063-4.41,0.063
					s9.8,11.652,11.76,16.116c1.96,4.463,4.409,18.103,1.471,23.532c-2.939,5.43-6.369,7.879-9.311,7.39
					C553.65,421.719,545.321,421.229,545.321,421.229z"/>
				<path fill="#212639" d="M464.308,727.873c-1.766,33.549,64.55,41.417,94.962,12.866c30.413-28.552,33.826-47.354,40.034-61.454
					c6.207-14.101,8.379-26.146,8.379-26.146l-66.709-37.323C540.974,615.815,466.17,692.497,464.308,727.873z"/>
				<polygon fill="#C9A0BE" points="545.614,606.222 616.371,644.647 607.683,657.583 540.974,615.815 				"/>
				<path fill="none" stroke="#FDFDFF" stroke-miterlimit="10" d="M605.438,660.531c0,0-13.952,49.817-26.766,63.712"/>
			</g>
			
				<line fill="none" stroke="#212639" stroke-linecap="round" stroke-linejoin="round" stroke-miterlimit="10" x1="599.31" y1="522.867" x2="616.371" y2="527.398"/>
			
				<line fill="none" stroke="#212639" stroke-linecap="round" stroke-linejoin="round" stroke-miterlimit="10" x1="596.908" y1="512.683" x2="613.97" y2="517.213"/>
			
				<line fill="none" stroke="#212639" stroke-linecap="round" stroke-linejoin="round" stroke-miterlimit="10" x1="590.779" y1="500.683" x2="607.841" y2="505.213"/>
			
				<line fill="none" stroke="#212639" stroke-linecap="round" stroke-linejoin="round" stroke-miterlimit="10" x1="886.192" y1="599.138" x2="900.084" y2="615.815"/>
			<polygon fill="none" stroke="#212639" stroke-linecap="round" stroke-linejoin="round" stroke-miterlimit="10" points="
				760.859,734.803 727.73,734.803 727.73,724.243 757.859,724.243 			"/>
			<polygon fill="none" stroke="#212639" stroke-linecap="round" stroke-linejoin="round" stroke-miterlimit="10" points="
				770.725,780.329 737.596,780.329 737.596,769.77 767.725,769.77 			"/>
			<path fill="none" stroke="#212639" stroke-miterlimit="10" d="M286.193,595.317c0,0,17.356,11.214,22.345,22.35"/>
			<path fill="none" stroke="#212639" stroke-miterlimit="10" d="M278.786,610.965c0,0,11.646,14.56,21.193,17.865"/>
		</g>
		<g>
			<polygon fill="#F65448" points="809.711,791.727 784.574,869.387 802.264,869.387 827.4,790.252 			"/>
			<polygon fill="#F65448" points="680.301,799.562 645.75,886.146 616.371,886.146 659.819,799.562 			"/>
			<path fill="#CBE6ED" d="M809.711,791.727c0,0-47.481-21.957-129.41,7.835l-34.551,86.584c0,0,100.652,11.172,138.824-16.759
				L809.711,791.727z"/>
			<ellipse fill="#FFFFFF" cx="727.73" cy="835.077" rx="29.432" ry="27.792"/>
			<path fill="#B684C6" d="M770.772,821.774c3.341-3.195,12.007-4.33,12.935,1.852c0.929,6.181-7.164,9.205-7.089,10.106
				c0.074,0.902,7.838,4.015,4.969,9.675c-2.87,5.66-10.042-5.429-20.157-6.679s-67.085,5.957-67.085,5.957
				s-6.438,12.972-13.734,10.483c-7.298-2.489,4.622-8.896,0.413-14.806c-4.21-5.91-1.437-12.734,3.669-11.527
				c5.105,1.208,5.101,7.883,16.529,6.521c11.429-1.359,61.215-4.638,61.215-4.638L770.772,821.774z"/>
			<polygon fill="#212639" points="680.301,799.562 630.041,886.146 645.75,886.146 			"/>
		</g>
		<g>
			<polygon fill="#3B61B2" points="1049.911,829.819 881.398,829.819 901.881,783.93 1033.152,783.93 			"/>
			<path fill="#212639" d="M1033.152,783.93c-47.48,29.987-131.271,0-131.271,0H1033.152z"/>
			<line fill="none" stroke="#FDFDFF" stroke-miterlimit="10" x1="886.192" y1="819.079" x2="1041.531" y2="819.079"/>
		</g>
		<g>
			<polygon fill="#FBEBDC" points="588.159,835.043 529.767,886.146 237.474,888.353 250.176,783.93 312.553,736.253 
				534.673,726.227 578.673,724.243 			"/>
			<polygon fill="#E5CEBC" points="588.159,835.043 529.767,886.146 519.46,775.354 534.673,726.227 578.673,724.243 			"/>
			<polygon fill="#D8BFAF" points="578.673,724.243 558.06,742.043 539.291,758.234 519.46,775.354 250.176,783.93 279.382,761.604 
				301.939,744.362 312.553,736.253 			"/>
			<polygon fill="#CBE6ED" points="568.097,769.77 544.477,790.252 539.291,758.234 279.382,761.604 301.939,744.362 
				557.586,740.74 558.06,742.043 			"/>
			<polygon fill="none" stroke="#212639" stroke-miterlimit="10" points="265.859,799.562 263.99,836.143 304.359,836.143 
				304.359,797.138 			"/>
			<polygon fill="none" stroke="#212639" stroke-miterlimit="10" points="329.522,797.138 329.522,820.638 391.727,820.638 
				391.727,795.638 			"/>
			<polygon fill="#C9A0BE" points="382.359,813.138 382.359,833.138 408.859,833.138 404.898,808.138 			"/>
			<rect x="269.279" y="803.138" fill="none" stroke="#212639" stroke-miterlimit="10" width="30.7" height="28"/>
			<polygon fill="none" stroke="#212639" stroke-miterlimit="10" points="450.817,859.638 450.817,866.138 510.859,866.138 
				510.859,856.638 			"/>
			<rect x="470.359" y="872.138" fill="#F65448" width="40.5" height="7.5"/>
			<line fill="none" stroke="#212639" stroke-miterlimit="10" x1="450.817" y1="799.562" x2="506.359" y2="799.562"/>
			<line fill="none" stroke="#212639" stroke-miterlimit="10" x1="449.833" y1="806.298" x2="505.375" y2="806.298"/>
			<line fill="none" stroke="#212639" stroke-miterlimit="10" x1="449.833" y1="811.138" x2="505.375" y2="811.138"/>
			<line fill="none" stroke="#212639" stroke-miterlimit="10" x1="449.833" y1="815.978" x2="505.375" y2="815.978"/>
			<line fill="none" stroke="#212639" stroke-miterlimit="10" x1="449.833" y1="820.817" x2="505.375" y2="820.817"/>
			<line fill="none" stroke="#212639" stroke-miterlimit="10" x1="474.859" y1="825.657" x2="505.375" y2="825.657"/>
			<line fill="none" stroke="#212639" stroke-miterlimit="10" x1="474.859" y1="830.497" x2="505.375" y2="830.497"/>
			<line fill="none" stroke="#212639" stroke-miterlimit="10" x1="539.291" y1="758.234" x2="557.586" y2="740.74"/>
		</g>
		<text transform="matrix(1 0 0 1 548.4385 122.9165)" font-family="'Rubik-Light'" font-size="20.8836" letter-spacing="10">NEW MEMBER FAMILY</text>
	</g>
</g>
</svg>
